<svg xmlns="http://www.w3.org/2000/svg" width="95" height="57" viewBox="0 0 95 57" fill="none"><path d="M73.8183 31.9445V32.193C73.783 35.1744 73.8536 34.6065 73.6771 37.5879C73.6065 38.7592 72.3356 39.682 71.0647 39.753C69.582 40.0015 67.7816 39.5756 67.1814 38.0848C66.899 37.304 66.8284 36.4522 66.7931 35.6358C66.8637 33.1513 66.546 30.7023 66.2282 28.3952C65.5222 23.4972 64.1807 19.7704 58.7793 17.9958C56.6259 17.1794 53.2015 17.2859 52.8484 19.522L52.7425 28.9986C52.7425 29.318 52.9897 29.5665 53.3074 29.5665H55.7433C56.061 29.5665 56.3081 29.318 56.3081 28.9986C56.3081 26.6561 56.2728 24.491 56.3434 22.1839C56.3434 21.7935 56.7671 21.5451 57.1201 21.687C58.9911 22.5034 60.7563 23.5327 61.533 25.4848C62.8039 28.3952 63.0157 31.5896 63.1216 34.713V34.7485C63.0863 36.1682 63.4393 37.8364 62.2743 38.9012C61.1446 40.0724 59.3795 39.7175 57.8968 39.824C54.6136 39.824 51.3304 39.9305 48.0473 39.753C46.4939 39.5756 45.3996 38.1203 45.4702 36.6296C45.3996 33.8612 45.4348 31.0927 45.4348 28.3242C45.4348 28.0048 45.1877 27.7564 44.87 27.7564H42.3988C42.0811 27.7564 41.834 28.0048 41.834 28.3242C41.7987 31.2347 41.9046 34.1806 41.728 37.091C41.6221 38.5108 40.3866 39.7175 38.9391 39.7885C37.3152 40.0015 35.4088 39.1141 35.1617 37.375C34.9146 34.926 34.9852 32.4769 34.7381 30.0279C34.491 27.2594 33.9261 24.4555 32.5846 21.971C31.1725 19.6284 28.5601 18.3507 25.983 17.6408C25.3828 17.4989 25.7712 16.6825 26.1242 16.3986C30.2298 11.5652 35.5214 7.29293 39.6413 2.50116C39.8601 2.19149 39.8245 1.95957 39.6528 1.80795C38.9742 1.22334 38.2941 0.640295 37.5853 0.086031C37.2734 -0.10819 37.1028 0.0614658 36.8916 0.249212C32.161 5.67965 26.4419 10.5777 21.676 16.0081C21.0549 16.633 20.7791 19.953 21.4642 20.3028C23.7942 21.0127 26.3713 21.5096 28.1718 23.2487C30.184 25.1299 30.643 28.0048 31.0313 30.5603C31.2784 32.8674 31.3137 35.2454 31.2431 37.5524V37.6944C30.8548 39.2916 29.8663 39.7175 28.6307 39.824C27.6422 39.895 26.4419 39.8595 25.5241 39.824C22.841 39.8595 20.2286 39.824 17.475 39.8595C17.1573 39.8595 16.9102 40.1079 16.9102 40.4274V42.7699C16.9102 43.0894 17.1573 43.3378 17.475 43.3378C19.805 43.3733 22.488 43.3733 24.3591 43.3378C26.4066 43.3023 27.7834 43.4088 29.478 43.2668C31.0666 43.0539 32.0198 42.2375 33.0083 41.5632C33.1848 41.4212 33.4319 41.4212 33.6437 41.5632C34.9852 42.415 36.3973 43.2668 38.0566 43.1958C39.8923 43.3378 41.7281 42.6634 43.2461 41.5987C43.8462 41.1018 44.4464 41.9536 45.0112 42.202C46.1762 42.9119 47.553 43.3733 48.9298 43.2313C52.7425 43.2313 56.5905 43.2668 60.4033 43.2313C61.0387 43.2313 61.6389 43.1249 62.239 42.9119C63.1216 42.5925 63.9688 42.0956 64.7808 41.5987C64.9573 41.4922 65.2044 41.4922 65.381 41.5987C66.7931 42.5215 68.3111 43.4443 70.0762 43.2668C76.2895 43.2668 82.5381 43.3733 88.7514 43.2313H88.822C91.5404 42.9119 94.3293 41.0663 94.9294 38.2978V38.1558C94.9647 31.8026 94.9647 25.9462 95 19.6639C95 18.2797 93.941 17.2504 92.5994 17.3924C89.7752 17.8183 86.951 18.8831 84.7975 20.8707C83.0324 22.4679 81.6556 24.562 81.3025 26.94C80.5965 30.4538 80.6318 33.9321 80.42 37.5169C80.3141 38.5108 79.5374 39.3981 78.6195 39.7175C77.0309 40.3564 77.3133 38.7592 77.3133 37.9074V32.2995V32.0865M91.3285 21.6515C91.3285 26.6561 91.2932 31.6606 91.2932 36.6651C91.2932 37.6589 90.8696 38.6527 90.0576 39.2206C89.5987 39.5756 89.0339 39.7885 88.4337 39.7885C87.0922 39.8595 85.786 39.8595 84.4445 39.8595C84.0915 39.8595 83.809 39.5046 83.9149 39.1496C84.3739 37.1975 84.1268 35.1389 84.268 33.1158C84.3033 30.2764 84.3386 27.2595 85.8919 24.7749C86.951 23.0358 88.7161 21.8645 90.5872 21.1191C90.9402 20.9772 91.3285 21.2611 91.3285 21.6515Z" fill="white"></path><path d="M19.3812 41.5633V39.8951H17.4396H15.4979V41.5633V43.3734H17.4396H19.3812V41.5633ZM10.4849 41.5633V39.9306H8.43736C7.30767 39.9306 6.03678 39.7531 5.75436 39.6822C3.88331 39.1498 3.24786 36.5942 4.58937 35.1745C5.22482 34.5002 5.75434 34.2517 8.19024 34.2517H10.2025L10.2378 31.0573C10.2731 28.2889 10.6261 27.9339 11.5087 27.2596C12.709 26.3368 14.6154 26.7272 15.3214 28.1114C15.4979 28.4308 15.5685 28.9987 15.6038 30.9863L15.6744 34.3937L17.4396 34.4292L19.3459 34.4647V31.1283C19.3459 29.1052 19.3106 28.1824 19.1694 27.6145C18.4634 24.846 16.6629 22.7519 13.3092 22.681C9.95538 22.61 6.95465 25.5204 6.67222 28.9277L6.60161 30.5249C2.6477 30.9154 0.0353028 33.5418 0 37.0202C0 40.0726 1.80044 42.4861 4.76588 43.3734C5.29543 43.5509 6.03678 43.4089 7.97843 43.4089H10.4849V41.5633Z" fill="white"></path><path d="M42.9948 17.8574H44.2302C44.901 17.8574 45.4306 18.5673 45.4306 19.4191C45.4306 20.271 44.901 20.9808 44.2302 20.9808H42.9948C42.324 20.9808 41.7944 20.271 41.7944 19.4191C41.7944 18.5318 42.324 17.8574 42.9948 17.8574Z" fill="white"></path><path d="M42.9948 22.1582H44.2302C44.901 22.1582 45.4306 22.8681 45.4306 23.7199C45.4306 24.5717 44.901 25.2816 44.2302 25.2816H42.9948C42.324 25.2816 41.7944 24.5717 41.7944 23.7199C41.7944 22.8326 42.324 22.1582 42.9948 22.1582Z" fill="white"></path></svg>